# xmcd
#
# Track frame offsets:
# 150
# 16782
# 31125
# 44965
# 62389
# 79767
# 96733
# 114375
# 140341
# 159375
# 180450
# 200917
# 224325
# 244122
# 262425
#
# Disc length: 3626 seconds
#
#
# Revision: 0
# Processed by: cddbd v1.5PL3 Copyright (c) Steve Scherf et al.
# Submitted via: FreeRIP 2.40 
#
DISCID=db0e280f
DTITLE=鄧麗君 - 思君集 DISC3
DYEAR=2004
DGENRE=Pop
TTITLE0=漫步人生路《粵語》
TTITLE1=東山漂雨西山晴《粵語》
TTITLE2=郊道《現場演繹》
TTITLE3=北國之春《日語》
TTITLE4=償還
TTITLE5=愛人《日語》
TTITLE6=船歌《現場演繹》
TTITLE7=The Power Of Love《現場演繹》
TTITLE8=我只在乎你
TTITLE9=戀人神話《日語》
TTITLE10=真夏的果實《日語》
TTITLE11=不了情
TTITLE12=Smoke Gets In You Eyes
TTITLE13=What A Wonderful World
TTITLE14=三年
EXTD=
EXTT0=
EXTT1=
EXTT2=
EXTT3=
EXTT4=
EXTT5=
EXTT6=
EXTT7=
EXTT8=
EXTT9=
EXTT10=
EXTT11=
EXTT12=
EXTT13=
EXTT14=
PLAYORDER=
